<?xml version="1.0" encoding="utf-8"?>
<!-- Generator: Adobe Illustrator 16.0.0, SVG Export Plug-In . SVG Version: 6.00 Build 0)  -->
<!DOCTYPE svg PUBLIC "-//W3C//DTD SVG 1.1//EN" "http://www.w3.org/Graphics/SVG/1.1/DTD/svg11.dtd">
<svg version="1.1" id="Layer_1" xmlns="http://www.w3.org/2000/svg" xmlns:xlink="http://www.w3.org/1999/xlink" x="0px" y="0px"
	 width="95.6px" height="116.082px" viewBox="0 0 95.6 116.082" enable-background="new 0 0 95.6 116.082" xml:space="preserve">
<g id="XMLID_1_">
	<g>
		<g id="XMLID_2_">
			<g>
				<circle fill="#FFFFFF" cx="86.113" cy="25.08" r="9.49"/>
				<path fill="#FFFFFF" d="M88.113,101.47c2.63,2.13,1,5.12,1,5.12s-3.88,9.62-16.37,9.49c-12.5-0.12-17-8.12-17-8.12h-0.13
					c0,0-4.38,8-16.87,8.12c-12.5,0.13-16.38-9.49-16.38-9.49s-1.63-2.99,1-5.12c2.63-2.12,5-0.36,5-0.36
					c1.63,1.75,3.25,6.53,10.37,6.53c11.63,0,12.38-12.56,12.38-12.56c-1.38-1.38-11-14.12-11-14.12c-1.88-5.38,3.5-5.38,3.5-5.38
					h12h12.25c0,0,5.38,0,3.5,5.38c0,0-9.62,12.74-11,14.12c0,0,0.75,12.56,12.38,12.56c7.12,0,8.75-4.78,10.37-6.53
					C83.113,101.11,85.493,99.35,88.113,101.47z"/>
				<path fill="#FFFFFF" d="M50.163,25.42c0,4.81-1.61,9.31-3.93,13.15l0.02,0.01l-18.69,25.96c-1.16,1.59-2.59,1.62-2.59,1.56
					c0,0.06-1.2,0.03-2.36-1.56L3.883,38.57c-2.32-3.84-3.88-8.34-3.88-13.15c0-14.01,12.11-25.38,25.11-25.42
					C38.113,0.04,50.163,11.41,50.163,25.42z M34.603,25.08c0-5.24-4.25-9.49-9.49-9.49c-5.24,0-9.49,4.25-9.49,9.49
					s4.25,9.49,9.49,9.49C30.353,34.57,34.603,30.32,34.603,25.08z"/>
			</g>
			<g>
			</g>
		</g>
	</g>
	<g>
	</g>
</g>
</svg>
