<?xml version="1.0" encoding="utf-8"?>
<!-- Generator: Adobe Illustrator 16.0.0, SVG Export Plug-In . SVG Version: 6.00 Build 0)  -->
<!DOCTYPE svg PUBLIC "-//W3C//DTD SVG 1.1//EN" "http://www.w3.org/Graphics/SVG/1.1/DTD/svg11.dtd">
<svg version="1.1" id="Layer_1" xmlns="http://www.w3.org/2000/svg" xmlns:xlink="http://www.w3.org/1999/xlink" x="0px" y="0px"
	 width="121.976px" height="41.087px" viewBox="0 0 121.976 41.087" enable-background="new 0 0 121.976 41.087"
	 xml:space="preserve">
<g>
	<path d="M1.082,32.008C0.36,31.286,0,30.307,0,29.07V5.435C0,4.228,0.324,3.3,0.972,2.651C1.619,2.004,2.547,1.68,3.755,1.68h11.31
		c3.446,0,6.125,0.876,8.041,2.628c1.914,1.753,2.872,4.19,2.872,7.312c0,3.093-0.965,5.522-2.894,7.29
		c-1.929,1.767-4.602,2.65-8.018,2.65H8.129v7.511c0,1.236-0.369,2.216-1.104,2.938C6.288,32.729,5.286,33.09,4.02,33.09
		C2.783,33.09,1.804,32.729,1.082,32.008z M13.96,15.463c1.502,0,2.613-0.31,3.335-0.928c0.721-0.618,1.082-1.575,1.082-2.871
		c0-2.562-1.473-3.844-4.417-3.844H8.129v7.643H13.96z"/>
	<path d="M47.779,26.641c0.427,0.529,0.641,1.222,0.641,2.076c0,1.178-0.574,2.076-1.723,2.694c-1.001,0.502-2.187,0.921-3.556,1.26
		c-1.37,0.338-2.629,0.508-3.777,0.508c-2.416,0-4.521-0.456-6.317-1.369c-1.797-0.913-3.181-2.224-4.153-3.933
		c-0.972-1.708-1.458-3.711-1.458-6.008c0-2.18,0.464-4.131,1.392-5.854c0.928-1.724,2.223-3.063,3.888-4.021
		c1.664-0.957,3.541-1.436,5.633-1.436c2.032,0,3.814,0.441,5.346,1.325c1.531,0.884,2.717,2.136,3.556,3.755
		c0.839,1.62,1.259,3.52,1.259,5.699c0,0.678-0.155,1.2-0.464,1.568c-0.31,0.368-0.759,0.552-1.348,0.552H35.033
		c0.206,1.414,0.663,2.43,1.37,3.049c0.707,0.618,1.752,0.928,3.137,0.928c0.736,0,1.414-0.081,2.032-0.243
		c0.618-0.161,1.31-0.39,2.076-0.685c0.442-0.177,0.876-0.331,1.303-0.464c0.427-0.133,0.817-0.199,1.171-0.199
		C46.799,25.845,47.352,26.11,47.779,26.641z M36.094,16.854c-0.619,0.663-0.987,1.628-1.104,2.894h6.936
		c-0.177-2.591-1.296-3.888-3.358-3.888C37.536,15.86,36.712,16.192,36.094,16.854z"/>
	<path d="M67.372,30.13c0,1.031-0.397,1.797-1.192,2.298c-0.796,0.5-1.93,0.707-3.402,0.618l-1.237-0.088
		c-2.65-0.206-4.66-1.009-6.03-2.408c-1.369-1.398-2.054-3.35-2.054-5.854v-7.819h-1.281c-2.356,0-3.535-0.973-3.535-2.916
		c0-1.914,1.178-2.872,3.535-2.872h1.281V8.218c0-1.119,0.354-2.01,1.06-2.673c0.707-0.663,1.664-0.994,2.872-0.994
		c1.207,0,2.165,0.331,2.871,0.994c0.707,0.663,1.061,1.554,1.061,2.673v2.871h2.43c2.356,0,3.534,0.958,3.534,2.872
		c0,1.943-1.178,2.916-3.534,2.916h-2.43v8.482c0,0.56,0.169,1.031,0.508,1.413c0.339,0.384,0.773,0.59,1.304,0.619l1.281,0.088
		C66.384,27.598,67.372,28.481,67.372,30.13z"/>
	<path d="M70.221,6.517c-0.78-0.691-1.171-1.612-1.171-2.761s0.391-2.062,1.171-2.739C71.001,0.34,72.055,0,73.38,0
		c1.295,0,2.341,0.34,3.137,1.017c0.795,0.678,1.192,1.591,1.192,2.739s-0.391,2.069-1.171,2.761
		c-0.78,0.692-1.833,1.038-3.158,1.038S71.001,7.209,70.221,6.517z M70.575,32.185c-0.751-0.604-1.127-1.509-1.127-2.717V14.271
		c0-1.208,0.376-2.113,1.127-2.718c0.751-0.603,1.686-0.905,2.806-0.905c1.119,0,2.054,0.303,2.805,0.905
		c0.751,0.604,1.127,1.51,1.127,2.718v15.197c0,1.208-0.376,2.113-1.127,2.717c-0.751,0.604-1.686,0.905-2.805,0.905
		C72.26,33.09,71.326,32.789,70.575,32.185z"/>
	<path d="M92.265,8.284c-0.427,0.574-0.641,1.333-0.641,2.275v0.529h2.43c2.356,0,3.534,0.958,3.534,2.872
		c0,1.943-1.178,2.916-3.534,2.916h-2.43v12.502c0,1.208-0.375,2.121-1.126,2.739c-0.751,0.619-1.687,0.928-2.806,0.928
		c-1.12,0-2.055-0.309-2.806-0.928c-0.751-0.618-1.126-1.531-1.126-2.739V16.877H82.48c-2.356,0-3.534-0.973-3.534-2.916
		c0-1.914,1.178-2.872,3.534-2.872h1.281c0.059-2.827,0.905-5.043,2.54-6.648c1.635-1.604,3.851-2.511,6.648-2.717l1.149-0.089
		c0.235-0.028,0.544-0.044,0.928-0.044c1.266,0,2.179,0.236,2.738,0.707c0.56,0.472,0.84,1.148,0.84,2.032S98.34,5.898,97.81,6.384
		c-0.53,0.486-1.253,0.759-2.165,0.817L94.497,7.29C93.436,7.378,92.692,7.71,92.265,8.284z"/>
	<path d="M116.365,11.222c0.56-0.354,1.178-0.53,1.855-0.53c0.972,0,1.841,0.325,2.606,0.973s1.149,1.429,1.149,2.341
		c0,0.501-0.118,0.987-0.354,1.458l-11.708,23.459c-0.354,0.735-0.817,1.281-1.392,1.635s-1.2,0.53-1.877,0.53
		c-0.973,0-1.834-0.317-2.585-0.95c-0.751-0.634-1.126-1.407-1.126-2.319c0-0.501,0.132-1.016,0.397-1.546l2.871-5.788l-7.51-15.021
		c-0.236-0.53-0.354-1.001-0.354-1.414c0-0.941,0.412-1.744,1.236-2.407s1.752-0.994,2.783-0.994c0.707,0,1.362,0.185,1.967,0.553
		c0.603,0.368,1.066,0.92,1.392,1.656l4.683,10.161l4.639-10.161C115.364,12.12,115.805,11.575,116.365,11.222z"/>
</g>
</svg>
